{
  "accessors": [
    {
      "bufferView": 2,
      "componentType": 5126,
      "count": 9255,
      "max": [
        7.1045398712158203,
        0.81012016534805298,
        2.0049071311950684
      ],
      "min": [
        -6.8949623107910156,
        -3.1996946334838867,
        -2.0049076080322266
      ],
      "type": "VEC3"
    },
    {
      "bufferView": 2,
      "byteOffset": 111060,
      "componentType": 5126,
      "count": 9255,
      "max": [
        1,
        1,
        1
      ],
      "min": [
        -1,
        -1,
        -1
      ],
      "type": "VEC3"
    },
    {
      "bufferView": 3,
      "componentType": 5126,
      "count": 9255,
      "max": [
        1,
        1,
        1,
        1
      ],
      "min": [
        -1,
        -1,
        -1,
        -1
      ],
      "type": "VEC4"
    },
    {
      "bufferView": 1,
      "componentType": 5126,
      "count": 9255,
      "max": [
        0.9976000189781189,
        0.75080001354217529
      ],
      "min": [
        0.01360000018030405,
        0.00030000001424923539
      ],
      "type": "VEC2"
    },
    {
      "bufferView": 0,
      "componentType": 5125,
      "count": 50586,
      "max": [
        9254
      ],
      "min": [
        0
      ],
      "type": "SCALAR"
    },
    {
      "bufferView": 2,
      "byteOffset": 222120,
      "componentType": 5126,
      "count": 10358,
      "max": [
        8.3390350341796875,
        3.9856295585632324,
        4.489262580871582
      ],
      "min": [
        -7.8233871459960938,
        -3.7931761741638184,
        -4.489262580871582
      ],
      "type": "VEC3"
    },
    {
      "bufferView": 2,
      "byteOffset": 346416,
      "componentType": 5126,
      "count": 10358,
      "max": [
        1,
        1,
        1
      ],
      "min": [
        -1,
        -1,
        -1
      ],
      "type": "VEC3"
    },
    {
      "bufferView": 3,
      "byteOffset": 148080,
      "componentType": 5126,
      "count": 10358,
      "max": [
        0.99998784065246582,
        1,
        1,
        1
      ],
      "min": [
        -0.99999988079071045,
        -1,
        -1,
        -1
      ],
      "type": "VEC4"
    },
    {
      "bufferView": 1,
      "byteOffset": 74040,
      "componentType": 5126,
      "count": 10358,
      "max": [
        0.99930000305175781,
        0.99949997663497925
      ],
      "min": [
        0.00079999997979030013,
        0.017300000414252281
      ],
      "type": "VEC2"
    },
    {
      "bufferView": 0,
      "byteOffset": 202344,
      "componentType": 5125,
      "count": 54912,
      "max": [
        10357
      ],
      "min": [
        0
      ],
      "type": "SCALAR"
    },
    {
      "bufferView": 2,
      "byteOffset": 470712,
      "componentType": 5126,
      "count": 12824,
      "max": [
        8.0374240875244141,
        3.9566836357116699,
        4.5175886154174805
      ],
      "min": [
        -8.3390340805053711,
        -3.9856300354003906,
        -4.5175886154174805
      ],
      "type": "VEC3"
    },
    {
      "bufferView": 2,
      "byteOffset": 624600,
      "componentType": 5126,
      "count": 12824,
      "max": [
        1,
        1,
        1
      ],
      "min": [
        -1,
        -1,
        -1
      ],
      "type": "VEC3"
    },
    {
      "bufferView": 3,
      "byteOffset": 313808,
      "componentType": 5126,
      "count": 12824,
      "max": [
        0.99872422218322754,
        1,
        1,
        1
      ],
      "min": [
        -0.99872332811355591,
        -1,
        -1,
        -1
      ],
      "type": "VEC4"
    },
    {
      "bufferView": 1,
      "byteOffset": 156904,
      "componentType": 5126,
      "count": 12824,
      "max": [
        0.99250000715255737,
        0.99550002813339233
      ],
      "min": [
        0.0031999999191612005,
        0.0038999998942017555
      ],
      "type": "VEC2"
    },
    {
      "bufferView": 0,
      "byteOffset": 421992,
      "componentType": 5125,
      "count": 69024,
      "max": [
        12823
      ],
      "min": [
        0
      ],
      "type": "SCALAR"
    },
    {
      "bufferView": 4,
      "componentType": 5126,
      "count": 398,
      "max": [
        8.3333330154418945
      ],
      "min": [
        0.041666667908430099
      ],
      "type": "SCALAR"
    },
    {
      "bufferView": 5,
      "componentType": 5126,
      "count": 398,
      "max": [
        140.61410522460938,
        218,
        101.74573516845703
      ],
      "min": [
        -111.74287414550781,
        6.9958481788635254,
        -88.043769836425781
      ],
      "type": "VEC3"
    },
    {
      "bufferView": 4,
      "byteOffset": 1592,
      "componentType": 5126,
      "count": 398,
      "max": [
        8.3333330154418945
      ],
      "min": [
        0.041666667908430099
      ],
      "type": "SCALAR"
    },
    {
      "bufferView": 6,
      "componentType": 5126,
      "count": 398,
      "max": [
        0.51060432195663452,
        0.99990057945251465,
        0.29926282167434692,
        0.998973548412323
      ],
      "min": [
        -0.2369789183139801,
        -0.84088516235351562,
        -0.43577253818511963,
        -0.49267357587814331
      ],
      "type": "VEC4"
    }
  ],
  "animations": [
    {
      "channels": [
        {
          "sampler": 0,
          "target": {
            "node": 5,
            "path": "translation"
          }
        },
        {
          "sampler": 1,
          "target": {
            "node": 5,
            "path": "rotation"
          }
        }
      ],
      "name": "Take 001",
      "samplers": [
        {
          "input": 15,
          "interpolation": "LINEAR",
          "output": 16
        },
        {
          "input": 17,
          "interpolation": "LINEAR",
          "output": 18
        }
      ]
    }
  ],
  "asset": {
    "extras": {
      "author": "Jean Carlo (https://sketchfab.com/joycarllo7)",
      "license": "CC-BY-4.0 (http://creativecommons.org/licenses/by/4.0/)",
      "source": "https://sketchfab.com/3d-models/foguete-animacao-e72c3d3d39ef4fb0a00e3664869420ed",
      "title": "Foguete Animação"
    },
    "generator": "Sketchfab-6.99.1",
    "version": "2.0"
  },
  "bufferViews": [
    {
      "buffer": 0,
      "byteLength": 698088,
      "byteOffset": 0,
      "name": "floatBufferViews",
      "target": 34963
    },
    {
      "buffer": 0,
      "byteLength": 259496,
      "byteOffset": 698088,
      "byteStride": 8,
      "name": "floatBufferViews",
      "target": 34962
    },
    {
      "buffer": 0,
      "byteLength": 778488,
      "byteOffset": 957584,
      "byteStride": 12,
      "name": "floatBufferViews",
      "target": 34962
    },
    {
      "buffer": 0,
      "byteLength": 518992,
      "byteOffset": 1736072,
      "byteStride": 16,
      "name": "floatBufferViews",
      "target": 34962
    },
    {
      "buffer": 0,
      "byteLength": 3184,
      "byteOffset": 2255064,
      "name": "floatBufferViews"
    },
    {
      "buffer": 0,
      "byteLength": 4776,
      "byteOffset": 2258248,
      "byteStride": 12,
      "name": "floatBufferViews"
    },
    {
      "buffer": 0,
      "byteLength": 6368,
      "byteOffset": 2263024,
      "byteStride": 16,
      "name": "floatBufferViews"
    }
  ],
  "buffers": [
    {
      "byteLength": 2269392,
      "uri": "scene.bin"
    }
  ],
  "extensionsRequired": [
    "KHR_materials_pbrSpecularGlossiness"
  ],
  "extensionsUsed": [
    "KHR_materials_pbrSpecularGlossiness"
  ],
  "materials": [
    {
      "doubleSided": true,
      "emissiveFactor": [
        0,
        0,
        0
      ],
      "extensions": {
        "KHR_materials_pbrSpecularGlossiness": {
          "diffuseFactor": [
            0.064000000000000001,
            0.064000000000000001,
            1,
            1
          ],
          "glossinessFactor": 0.40000000000000002,
          "specularFactor": [
            0,
            0,
            0
          ]
        }
      },
      "name": "Corpo"
    },
    {
      "doubleSided": true,
      "emissiveFactor": [
        0,
        0,
        0
      ],
      "extensions": {
        "KHR_materials_pbrSpecularGlossiness": {
          "diffuseFactor": [
            1,
            0,
            0,
            1
          ],
          "glossinessFactor": 0.40000000000000002,
          "specularFactor": [
            0,
            0,
            0
          ]
        }
      },
      "name": "Base"
    },
    {
      "doubleSided": true,
      "emissiveFactor": [
        0,
        0,
        0
      ],
      "extensions": {
        "KHR_materials_pbrSpecularGlossiness": {
          "diffuseFactor": [
            1,
            0.96153299999999997,
            0,
            1
          ],
          "glossinessFactor": 0.40000000000000002,
          "specularFactor": [
            0,
            0,
            0
          ]
        }
      },
      "name": "Bolinhas"
    }
  ],
  "meshes": [
    {
      "name": "polySurface3_Corpo_0",
      "primitives": [
        {
          "attributes": {
            "NORMAL": 1,
            "POSITION": 0,
            "TANGENT": 2,
            "TEXCOORD_0": 3
          },
          "indices": 4,
          "material": 0,
          "mode": 4
        }
      ]
    },
    {
      "name": "polySurface3_Base_0",
      "primitives": [
        {
          "attributes": {
            "NORMAL": 6,
            "POSITION": 5,
            "TANGENT": 7,
            "TEXCOORD_0": 8
          },
          "indices": 9,
          "material": 1,
          "mode": 4
        }
      ]
    },
    {
      "name": "polySurface3_Bolinhas_0",
      "primitives": [
        {
          "attributes": {
            "NORMAL": 11,
            "POSITION": 10,
            "TANGENT": 12,
            "TEXCOORD_0": 13
          },
          "indices": 14,
          "material": 2,
          "mode": 4
        }
      ]
    }
  ],
  "nodes": [
    {
      "children": [
        1
      ],
      "name": "RootNode (gltf orientation matrix)",
      "rotation": [
        -0.70710678118654746,
        -0,
        -0,
        0.70710678118654757
      ]
    },
    {
      "children": [
        2
      ],
      "name": "RootNode (model correction matrix)"
    },
    {
      "children": [
        3
      ],
      "matrix": [
        1,
        0,
        0,
        0,
        0,
        0,
        1,
        0,
        0,
        -1,
        0,
        0,
        0,
        0,
        0,
        1
      ],
      "name": "388af56a609e44a794f11400e18e87ba.fbx"
    },
    {
      "children": [
        4
      ],
      "name": ""
    },
    {
      "children": [
        5,
        10,
        11
      ],
      "name": "RootNode"
    },
    {
      "children": [
        6,
        7,
        8,
        9
      ],
      "name": "polySurface3",
      "rotation": [
        0,
        -0.44957062602043152,
        0,
        0.89324492216110229
      ],
      "translation": [
        -33,
        7,
        8
      ]
    },
    {
      "mesh": 0,
      "name": "polySurface3_Corpo_0"
    },
    {
      "mesh": 1,
      "name": "polySurface3_Base_0"
    },
    {
      "mesh": 2,
      "name": "polySurface3_Bolinhas_0"
    },
    {
      "name": "emitter1",
      "rotation": [
        0,
        0.44957062602043152,
        0,
        0.89324492216110229
      ],
      "translation": [
        -6.8822574615478516,
        -1.2636545896530151,
        -0.088692322373390198
      ]
    },
    {
      "name": "nParticle1"
    },
    {
      "name": "nucleus1"
    }
  ],
  "scene": 0,
  "scenes": [
    {
      "name": "OSG_Scene",
      "nodes": [
        0
      ]
    }
  ]
}

